<?xml version="1.0" standalone="no"?>
<!DOCTYPE svg PUBLIC "-//W3C//DTD SVG 20010904//EN"
 "http://www.w3.org/TR/2001/REC-SVG-20010904/DTD/svg10.dtd">
<svg version="1.0" xmlns="http://www.w3.org/2000/svg"
 width="900.000000pt" height="900.000000pt" viewBox="0 0 900.000000 900.000000"
 preserveAspectRatio="xMidYMid meet">
<metadata>
Created by potrace 1.11, written by Peter Selinger 2001-2013
</metadata>
<g transform="translate(0.000000,900.000000) scale(0.100000,-0.100000)"
fill="#000000" stroke="none">
<path d="M4610 7088 c-1 -2 -2 -55 -3 -118 l-2 -115 -120 -5 -120 -5 -3 -787
-2 -788 -120 0 -120 0 0 -120 0 -120 -181 -2 -181 -3 -1 -115 -2 -115 -180 -5
-180 -5 -5 -119 -5 -118 -115 -2 -115 -1 -3 -122 -3 -123 -244 0 c-135 0 -245
3 -246 8 0 4 -1 59 -2 122 l-2 115 -108 2 c-60 1 -115 4 -123 7 -12 5 -15 28
-13 118 l2 113 -122 3 -121 3 0 239 0 240 -115 0 -115 0 0 -720 0 -719 117 -3
118 -3 3 -117 3 -118 115 0 c83 0 116 -3 119 -12 2 -7 6 -62 7 -123 l3 -110
120 -5 120 -5 3 -117 3 -117 117 -3 117 -3 3 -117 3 -118 119 0 120 0 0 -485
0 -485 240 0 241 0 -3 117 -3 118 -115 2 -115 2 -3 120 -3 120 118 3 118 3 3
123 3 122 119 0 120 0 0 120 0 121 123 -3 122 -3 3 -117 3 -117 117 -3 117 -3
5 -360 5 -360 235 0 235 0 0 115 0 115 -110 2 c-60 1 -116 2 -123 2 -10 1 -12
101 -10 484 l3 482 120 5 120 5 3 118 3 117 119 0 120 0 2 183 3 182 117 3
118 3 2 422 3 422 120 0 120 0 3 -122 3 -123 114 0 115 0 0 240 0 240 -237 2
-238 3 0 240 0 240 483 3 482 2 0 120 0 120 -365 0 -365 0 0 120 0 120 605 0
605 0 5 23 c3 12 4 256 3 542 l-3 520 -120 5 -120 5 -3 118 -3 117 -959 0
c-528 0 -960 -1 -960 -2z m475 -478 l0 -125 -120 0 -120 0 -3 114 c-1 63 0
121 2 128 4 11 32 13 123 11 l118 -3 0 -125z"/>
<path d="M732 2795 l3 -55 957 -3 c639 -1 959 1 962 8 2 6 3 30 2 55 l-2 45
-962 3 -963 2 3 -55z"/>
<path d="M5090 2795 l0 -55 1690 0 1690 0 0 55 0 55 -1690 0 -1690 0 0 -55z"/>
<path d="M7392 2433 l3 -58 173 -3 172 -2 0 60 0 60 -175 0 -176 0 3 -57z"/>
<path d="M1460 2310 l0 -60 233 2 232 3 0 55 0 55 -232 3 -233 2 0 -60z"/>
<path d="M5705 2120 c-2 -3 -5 -28 -6 -55 l-3 -50 52 -3 52 -3 0 59 0 60 -46
-2 c-25 0 -47 -3 -49 -6z"/>
<path d="M730 1945 l0 -55 235 0 235 0 0 55 0 55 -235 0 -235 0 0 -55z"/>
<path d="M2427 1993 c-2 -4 -4 -28 -3 -53 l1 -45 115 0 115 0 0 50 0 50 -112
3 c-61 1 -113 -1 -116 -5z"/>
<path d="M6540 1945 l0 -55 240 0 240 0 0 55 0 55 -240 0 -240 0 0 -55z"/>
</g>
</svg>
